<svg width="100%" viewBox="0 0 680 920" xmlns="http://www.w3.org/2000/svg">
<defs>
  <marker id="arrow" viewBox="0 0 10 10" refX="8" refY="5" markerWidth="6" markerHeight="6" orient="auto-start-reverse">
    <path d="M2 1L8 5L2 9" fill="none" stroke="context-stroke" stroke-width="1.5" stroke-linecap="round" stroke-linejoin="round"/>
  </marker>
  <style>
    text { font-family: -apple-system,BlinkMacSystemFont,'Segoe UI',Arial,sans-serif; }
    .th  { font-size:14px; font-weight:600; }
    .ts  { font-size:12px; font-weight:400; }
  </style>
</defs>

<!-- CAPA 1: PRESENTACIÓN -->
<rect x="20" y="16" width="640" height="148" rx="10" fill="#E6F1FB" stroke="#185FA5" stroke-width="0.8"/>
<text class="th" x="36" y="36" fill="#0C447C">① Presentación — Acceso y Autenticación</text>
<rect x="36" y="50" width="90" height="56" rx="6" fill="#B5D4F4" stroke="#185FA5" stroke-width="0.5"/>
<text class="th" x="81" y="74" text-anchor="middle" fill="#0C447C">Usuario</text>
<text class="ts" x="81" y="91" text-anchor="middle" fill="#185FA5">chat.protecso.io</text>
<rect x="160" y="50" width="100" height="56" rx="6" fill="#B5D4F4" stroke="#185FA5" stroke-width="0.5"/>
<text class="th" x="210" y="71" text-anchor="middle" fill="#0C447C">CloudFront</text>
<text class="ts" x="210" y="87" text-anchor="middle" fill="#185FA5">cur-chat-cdn</text>
<text class="ts" x="210" y="100" text-anchor="middle" fill="#185FA5">CDN + HTTPS</text>
<rect x="295" y="50" width="90" height="56" rx="6" fill="#B5D4F4" stroke="#185FA5" stroke-width="0.5"/>
<text class="th" x="340" y="71" text-anchor="middle" fill="#0C447C">S3 SPA</text>
<text class="ts" x="340" y="87" text-anchor="middle" fill="#185FA5">index.html</text>
<text class="ts" x="340" y="100" text-anchor="middle" fill="#185FA5">Frontend</text>
<rect x="420" y="50" width="110" height="56" rx="6" fill="#B5D4F4" stroke="#185FA5" stroke-width="0.5"/>
<text class="th" x="475" y="71" text-anchor="middle" fill="#0C447C">Cognito</text>
<text class="ts" x="475" y="87" text-anchor="middle" fill="#185FA5">protecso-cur-chat</text>
<text class="ts" x="475" y="100" text-anchor="middle" fill="#185FA5">JWT Bearer token</text>
<rect x="560" y="50" width="84" height="56" rx="6" fill="#B5D4F4" stroke="#185FA5" stroke-width="0.5"/>
<text class="th" x="602" y="71" text-anchor="middle" fill="#0C447C">API GW</text>
<text class="ts" x="602" y="87" text-anchor="middle" fill="#185FA5">POST /chat</text>
<text class="ts" x="602" y="100" text-anchor="middle" fill="#185FA5">POST /report</text>
<line x1="126" y1="78" x2="158" y2="78" stroke="#378ADD" stroke-width="1" marker-end="url(#arrow)"/>
<line x1="260" y1="78" x2="293" y2="78" stroke="#378ADD" stroke-width="1" marker-end="url(#arrow)"/>
<line x1="385" y1="78" x2="418" y2="78" stroke="#27ae60" stroke-width="1" marker-end="url(#arrow)"/>
<text class="ts" x="400" y="72" text-anchor="middle" fill="#1E8449">JWT</text>
<line x1="530" y1="78" x2="558" y2="78" stroke="#27ae60" stroke-width="1" marker-end="url(#arrow)"/>

<!-- CAPA 2: FLUJO CHAT -->
<rect x="20" y="180" width="640" height="228" rx="10" fill="#FEF9E7" stroke="#BA7517" stroke-width="0.8"/>
<text class="th" x="36" y="200" fill="#633806">② Flujo Chat — POST /chat (lenguaje natural)</text>
<rect x="36" y="212" width="130" height="80" rx="6" fill="#FAC775" stroke="#BA7517" stroke-width="0.5"/>
<text class="th" x="101" y="232" text-anchor="middle" fill="#412402">Lambda chat</text>
<text class="ts" x="101" y="249" text-anchor="middle" fill="#633806">protecso-cur-chat</text>
<text class="ts" x="101" y="264" text-anchor="middle" fill="#633806">Proxy Bedrock</text>
<text class="ts" x="101" y="279" text-anchor="middle" fill="#633806">Python 3.12</text>
<rect x="210" y="212" width="120" height="80" rx="6" fill="#FAC775" stroke="#BA7517" stroke-width="0.5"/>
<text class="th" x="270" y="232" text-anchor="middle" fill="#412402">DynamoDB</text>
<text class="ts" x="270" y="249" text-anchor="middle" fill="#633806">cur-chat-history</text>
<text class="ts" x="270" y="264" text-anchor="middle" fill="#633806">sesiones + msgs</text>
<text class="ts" x="270" y="279" text-anchor="middle" fill="#633806">max 200/usuario</text>
<rect x="376" y="212" width="130" height="80" rx="6" fill="#FAC775" stroke="#BA7517" stroke-width="0.5"/>
<text class="th" x="441" y="232" text-anchor="middle" fill="#412402">Bedrock Agent</text>
<text class="ts" x="441" y="249" text-anchor="middle" fill="#633806">BEDROCK_AGENT_ID</text>
<text class="ts" x="441" y="264" text-anchor="middle" fill="#633806">alias: BEDROCK_AGENT_ALIAS</text>
<text class="ts" x="441" y="279" text-anchor="middle" fill="#633806">Claude Sonnet</text>
<rect x="548" y="212" width="96" height="80" rx="6" fill="#FAC775" stroke="#BA7517" stroke-width="0.5"/>
<text class="th" x="596" y="232" text-anchor="middle" fill="#412402">Lambda</text>
<text class="ts" x="596" y="249" text-anchor="middle" fill="#633806">athena-action</text>
<text class="ts" x="596" y="264" text-anchor="middle" fill="#633806">Action Group</text>
<text class="ts" x="596" y="279" text-anchor="middle" fill="#633806">Python 3.12</text>
<line x1="166" y1="252" x2="208" y2="252" stroke="#BA7517" stroke-width="1" marker-end="url(#arrow)"/>
<text class="ts" x="187" y="246" text-anchor="middle" fill="#854F0B">get/put</text>
<line x1="506" y1="252" x2="546" y2="252" stroke="#BA7517" stroke-width="1" marker-end="url(#arrow)"/>
<text class="ts" x="526" y="246" text-anchor="middle" fill="#854F0B">invoke</text>
<path d="M166 248 Q271 220 374 252" fill="none" stroke="#BA7517" stroke-width="1" marker-end="url(#arrow)" stroke-dasharray="4 2"/>
<text class="ts" x="271" y="222" text-anchor="middle" fill="#854F0B">InvokeAgent</text>
<path d="M376 265 Q271 296 166 265" fill="none" stroke="#27ae60" stroke-width="1" marker-end="url(#arrow)"/>
<text class="ts" x="271" y="312" text-anchor="middle" fill="#1E8449">respuesta NL</text>

<!-- CAPA 3: FLUJO REPORTE -->
<rect x="20" y="424" width="640" height="200" rx="10" fill="#EAFAF1" stroke="#0F6E56" stroke-width="0.8"/>
<text class="th" x="36" y="444" fill="#04342C">③ Flujo Reporte Excel — POST /send-report</text>
<rect x="36" y="456" width="140" height="100" rx="6" fill="#9FE1CB" stroke="#0F6E56" stroke-width="0.5"/>
<text class="th" x="106" y="476" text-anchor="middle" fill="#04342C">Lambda report</text>
<text class="ts" x="106" y="493" text-anchor="middle" fill="#0F6E56">cur-report-email</text>
<text class="ts" x="106" y="508" text-anchor="middle" fill="#0F6E56">openpyxl layer</text>
<text class="ts" x="106" y="523" text-anchor="middle" fill="#0F6E56">Excel 4 hojas</text>
<text class="ts" x="106" y="538" text-anchor="middle" fill="#0F6E56">Python 3.12</text>
<rect x="216" y="456" width="140" height="100" rx="6" fill="#9FE1CB" stroke="#0F6E56" stroke-width="0.5"/>
<text class="th" x="286" y="476" text-anchor="middle" fill="#04342C">Athena</text>
<text class="ts" x="286" y="493" text-anchor="middle" fill="#0F6E56">db: aws_costs</text>
<text class="ts" x="286" y="508" text-anchor="middle" fill="#0F6E56">tabla: data</text>
<text class="ts" x="286" y="523" text-anchor="middle" fill="#0F6E56">4 queries SQL</text>
<text class="ts" x="286" y="538" text-anchor="middle" fill="#0F6E56">sobre CUR</text>
<rect x="396" y="456" width="110" height="100" rx="6" fill="#9FE1CB" stroke="#0F6E56" stroke-width="0.5"/>
<text class="th" x="451" y="476" text-anchor="middle" fill="#04342C">Organizations</text>
<text class="ts" x="451" y="493" text-anchor="middle" fill="#0F6E56">list_accounts()</text>
<text class="ts" x="451" y="508" text-anchor="middle" fill="#0F6E56">AccountId a</text>
<text class="ts" x="451" y="523" text-anchor="middle" fill="#0F6E56">nombre real</text>
<rect x="546" y="456" width="98" height="100" rx="6" fill="#9FE1CB" stroke="#0F6E56" stroke-width="0.5"/>
<text class="th" x="595" y="476" text-anchor="middle" fill="#04342C">Amazon SES</text>
<text class="ts" x="595" y="493" text-anchor="middle" fill="#0F6E56">us-east-1</text>
<text class="ts" x="595" y="508" text-anchor="middle" fill="#0F6E56">daniel.cordero</text>
<text class="ts" x="595" y="523" text-anchor="middle" fill="#0F6E56">@protecso.pe</text>
<text class="ts" x="595" y="538" text-anchor="middle" fill="#0F6E56">adjunto .xlsx</text>
<line x1="176" y1="506" x2="214" y2="506" stroke="#0F6E56" stroke-width="1" marker-end="url(#arrow)"/>
<line x1="356" y1="506" x2="394" y2="506" stroke="#0F6E56" stroke-width="1" marker-end="url(#arrow)"/>
<line x1="506" y1="506" x2="544" y2="506" stroke="#0F6E56" stroke-width="1" marker-end="url(#arrow)"/>

<!-- CAPA 4: DATOS -->
<rect x="20" y="640" width="640" height="152" rx="10" fill="#F1EFE8" stroke="#5F5E5A" stroke-width="0.8"/>
<text class="th" x="36" y="660" fill="#2C2C2A">④ Capa Datos — Amazon S3</text>
<rect x="36" y="672" width="186" height="96" rx="6" fill="#D3D1C7" stroke="#5F5E5A" stroke-width="0.5"/>
<text class="th" x="129" y="693" text-anchor="middle" fill="#2C2C2A">S3 — Datos CUR</text>
<text class="ts" x="129" y="710" text-anchor="middle" fill="#444441">aws-cur2-cost-exports</text>
<text class="ts" x="129" y="725" text-anchor="middle" fill="#444441">-989663408506</text>
<text class="ts" x="129" y="740" text-anchor="middle" fill="#444441">/cost-and-usage/</text>
<text class="ts" x="129" y="755" text-anchor="middle" fill="#444441">CUR 2.0 por hora</text>
<rect x="247" y="672" width="186" height="96" rx="6" fill="#D3D1C7" stroke="#5F5E5A" stroke-width="0.5"/>
<text class="th" x="340" y="693" text-anchor="middle" fill="#2C2C2A">S3 — Resultados</text>
<text class="ts" x="340" y="710" text-anchor="middle" fill="#444441">athena-cost-by-account</text>
<text class="ts" x="340" y="725" text-anchor="middle" fill="#444441">-results</text>
<text class="ts" x="340" y="740" text-anchor="middle" fill="#444441">/athena-results/</text>
<text class="ts" x="340" y="755" text-anchor="middle" fill="#444441">output de queries</text>
<rect x="458" y="672" width="186" height="96" rx="6" fill="#D3D1C7" stroke="#5F5E5A" stroke-width="0.5"/>
<text class="th" x="551" y="693" text-anchor="middle" fill="#2C2C2A">S3 — Frontend</text>
<text class="ts" x="551" y="710" text-anchor="middle" fill="#444441">protecso-aws-cost</text>
<text class="ts" x="551" y="725" text-anchor="middle" fill="#444441">-assistan</text>
<text class="ts" x="551" y="740" text-anchor="middle" fill="#444441">index.html (SPA)</text>
<text class="ts" x="551" y="755" text-anchor="middle" fill="#444441">solo via CloudFront</text>

<!-- CONECTORES INTER-CAPA -->
<line x1="602" y1="106" x2="602" y2="152" stroke="#888" stroke-width="0.8"/>
<line x1="602" y1="152" x2="101" y2="175" stroke="#888" stroke-width="0.8" marker-end="url(#arrow)"/>
<text class="ts" x="360" y="168" text-anchor="middle" fill="#5F5E5A">POST /chat</text>
<line x1="617" y1="106" x2="617" y2="418" stroke="#888" stroke-width="0.8"/>
<line x1="617" y1="418" x2="106" y2="454" stroke="#888" stroke-width="0.8" marker-end="url(#arrow)"/>
<text class="ts" x="490" y="414" text-anchor="middle" fill="#5F5E5A">POST /send-report</text>
<line x1="286" y1="556" x2="286" y2="608" stroke="#5F5E5A" stroke-width="0.8" stroke-dasharray="3 2"/>
<line x1="286" y1="608" x2="129" y2="608" stroke="#5F5E5A" stroke-width="0.8" stroke-dasharray="3 2"/>
<line x1="129" y1="608" x2="129" y2="670" stroke="#5F5E5A" stroke-width="0.8" stroke-dasharray="3 2" marker-end="url(#arrow)"/>
<text class="ts" x="200" y="602" text-anchor="middle" fill="#5F5E5A">lee CUR</text>
<line x1="286" y1="630" x2="340" y2="630" stroke="#5F5E5A" stroke-width="0.8" stroke-dasharray="3 2"/>
<line x1="340" y1="630" x2="340" y2="670" stroke="#5F5E5A" stroke-width="0.8" stroke-dasharray="3 2" marker-end="url(#arrow)"/>
<text class="ts" x="400" y="625" text-anchor="middle" fill="#5F5E5A">escribe resultados</text>

<!-- LEYENDA -->
<rect x="20" y="812" width="640" height="88" rx="8" fill="none" stroke="#D3D1C7" stroke-width="0.5"/>
<text class="th" x="36" y="832" fill="#2C2C2A">Referencia tecnica — Protecso · us-east-1 · v1.1.0</text>
<text class="ts" x="36" y="850" fill="#5F5E5A">Bedrock Agent: BEDROCK_AGENT_ID · Alias prod: BEDROCK_AGENT_ALIAS · Cognito Pool: COGNITO_USER_POOL_ID</text>
<text class="ts" x="36" y="866" fill="#5F5E5A">CUR bucket: aws-cur2-cost-exports-989663408506 · Athena DB: aws_costs · tabla: data</text>
<text class="ts" x="36" y="882" fill="#5F5E5A">SES from: daniel.cordero@protecso.com.pe · Runtime: Python 3.12 · Layer: openpyxl-python312:1</text>
</svg>
